#N canvas 389 261 734 707 10;
#X obj 341 450 dac~;
#X floatatom 338 308 5 0 0 0 - - -;
#X obj 240 83 vsl 15 128 0 127 0 0 empty empty empty 0 -9 0 10 -262144
-1 -1 0 1;
#X obj 340 80 vsl 15 128 0 1 0 0 empty empty empty 0 -9 0 10 -262144
-1 -1 0 1;
#X obj 244 352 *~;
#X obj 236 6 receive pitch;
#X obj 339 6 receive amplitude;
#X msg 41 78 \; pd dsp \$1;
#X obj 41 58 tgl 15 0 empty empty empty 17 7 0 10 -262144 -1 -1 0 1
;
#X text 62 57 DSP On/Off;
#X obj 231 228 mtof;
#X obj 242 306 osc~;
#X obj 200 401 env~;
#X floatatom 241 442 12 0 0 0 - - -;
#X obj 239 29 * 127;
#X obj 326 404 *~;
#X obj 527 344 line~;
#X msg 425 228 1 500;
#X obj 497 231 0 500;
#X obj 434 196 bng 15 250 50 0 empty empty empty 17 7 0 10 -262144
-1 -1;
#X obj 496 192 bng 15 250 50 0 empty empty empty 17 7 0 10 -262144
-1 -1;
#X obj 453 111 tgl 15 0 empty empty empty 17 7 0 10 -262144 -1 -1 0
1;
#X obj 441 146 sel 1;
#X obj 232 279 line~;
#X msg 231 249 \$1 200;
#X obj 422 57 receive enable;
#X obj 342 31 * 127;
#X obj 339 53 clip 0 127;
#X obj 242 60 clip 0 127;
#X connect 1 0 4 1;
#X connect 2 0 10 0;
#X connect 3 0 1 0;
#X connect 4 0 12 0;
#X connect 4 0 15 0;
#X connect 5 0 14 0;
#X connect 6 0 26 0;
#X connect 8 0 7 0;
#X connect 10 0 24 0;
#X connect 11 0 4 0;
#X connect 12 0 13 0;
#X connect 14 0 28 0;
#X connect 15 0 0 0;
#X connect 15 0 0 1;
#X connect 16 0 15 1;
#X connect 17 0 16 0;
#X connect 18 0 16 0;
#X connect 19 0 17 0;
#X connect 20 0 18 0;
#X connect 21 0 22 0;
#X connect 22 0 19 0;
#X connect 22 1 20 0;
#X connect 23 0 11 0;
#X connect 24 0 23 0;
#X connect 25 0 21 0;
#X connect 26 0 27 0;
#X connect 27 0 3 0;
#X connect 28 0 2 0;
